<svg width="0" height="0" class="hidden">
  <symbol xmlns="http://www.w3.org/2000/svg" viewBox="-583 485 32 32" id="bbyApprove">
    <path d="M-575.889 506.926c-.303 0-.607-.116-.838-.347l-5.926-5.926a1.185 1.185 0 111.676-1.676l5.926 5.926a1.185 1.185 0 01-.838 2.023zm4.741 4.741a1.185 1.185 0 01-.838-2.023l18.963-18.963a1.185 1.185 0 111.676 1.676l-18.963 18.963c-.231.23-.535.347-.838.347z"></path>
  </symbol>
  <symbol xmlns="http://www.w3.org/2000/svg" viewBox="-583 485 32 32" id="bbyArrowDown">
    <path d="M-567.808 512.094a1.144 1.144 0 001.951-.808v-25.143a1.143 1.143 0 00-2.286 0v22.384l-8.335-8.335a1.141 1.141 0 00-1.616 0 1.141 1.141 0 000 1.616l10.286 10.286zm5.379-4.237c.293 0 .585-.112.808-.335l5.714-5.714a1.141 1.141 0 10-1.616-1.615l-5.714 5.714a1.141 1.141 0 00.808 1.95z"></path>
    <path d="M-552.143 506.714c-.632 0-1.143.511-1.143 1.143v6.857h-27.429v-6.857a1.143 1.143 0 10-2.286 0v8c0 .632.512 1.143 1.143 1.143h29.714c.632 0 1.143-.511 1.143-1.143v-8a1.14 1.14 0 00-1.142-1.143z"></path>
  </symbol>
  <symbol xmlns="http://www.w3.org/2000/svg" viewBox="-583 485 32 32" id="bbyArrowLeft">
    <path d="M-552.123 502.143h-29.755c-.454 0-.864-.279-1.038-.705a1.158 1.158 0 01.243-1.246l13.473-13.714a1.107 1.107 0 011.587 0 1.156 1.156 0 010 1.616l-11.555 11.763h27.043c.622 0 1.123.512 1.123 1.143a1.13 1.13 0 01-1.121 1.143zm-16.28 13.714a1.11 1.11 0 01-.794-.335l-8.983-9.143c-.439-.447-.439-1.169 0-1.616s1.148-.447 1.587 0l8.983 9.143a1.156 1.156 0 010 1.616 1.107 1.107 0 01-.793.335z"></path>
  </symbol>
  <symbol xmlns="http://www.w3.org/2000/svg" viewBox="-583 485 32 32" id="bbyArrowRight">
    <path d="M-581.878 502.143h29.755c.454 0 .864-.279 1.038-.705a1.158 1.158 0 00-.243-1.246l-13.473-13.714a1.107 1.107 0 00-1.587 0 1.156 1.156 0 000 1.616l11.557 11.764h-27.045c-.621 0-1.122.512-1.122 1.143a1.13 1.13 0 001.12 1.142zm16.281 13.714c.287 0 .575-.112.794-.335l8.983-9.143a1.156 1.156 0 000-1.616 1.107 1.107 0 00-1.587 0l-8.983 9.143a1.156 1.156 0 000 1.616c.219.223.507.335.793.335z"></path>
  </symbol>
  <symbol xmlns="http://www.w3.org/2000/svg" viewBox="-583 485 32 32" id="bbyCopy">
    <path d="M-556.714 517h-25.143a1.143 1.143 0 01-1.143-1.143v-20.571a1.143 1.143 0 012.286 0v19.429h22.857v-22.857h-24a1.143 1.143 0 010-2.286h25.143c.632 0 1.143.512 1.143 1.143v25.143c0 .631-.511 1.142-1.143 1.142z"></path>
    <path d="M-552.143 507.857a1.142 1.142 0 01-1.143-1.143v-19.429h-19.429a1.143 1.143 0 010-2.286h20.571c.632 0 1.143.512 1.143 1.143v20.571a1.14 1.14 0 01-1.142 1.144z"></path>
  </symbol>
  <symbol xmlns="http://www.w3.org/2000/svg" viewBox="-583 485 32 32" id="bbyDel">
    <path d="M-572.756 497.02c.239.24.553.359.866.359a1.226 1.226 0 00.866-2.093l-9.803-9.812a1.225 1.225 0 10-1.733 1.734l9.804 9.812zm7.501 4.039l13.839-13.852a1.226 1.226 0 000-1.734c-.479-.479-1.254-.69-1.733-.21l-15.069 14.931-14.522 14.717c-.479.479-.388 1.255.09 1.734.239.24.598.359.912.359.314 0 .65-.119.889-.359l13.85-13.85 13.844 13.852c.239.24.556.359.869.359a1.226 1.226 0 00.869-2.093l-13.838-13.854z"></path>
  </symbol>
  <symbol xmlns="http://www.w3.org/2000/svg" viewBox="0 0 1030.674 223.293" id="bbyLogoColor">
    <g fill="#1b1b1c">
      <path d="M228.739 93.813a45.473 45.473 0 00-23.114 6.28V97.71c-.006 0-.006.006-.011.006 0-1.29.006-2.585.006-3.875 0-1.087.006-2.18.006-3.267v-1.425c.017-9.332.028-18.659.045-27.986h-26.606v124.082h26.556c0-1.262-.006-2.534-.006-3.796.006 0 .006 0 .011.006v-2.422a45.53 45.53 0 0023.114 6.274c25.26 0 45.75-20.473 45.75-45.75-.001-25.255-20.491-45.744-45.751-45.744zm0 66.02c-11.191 0-20.27-9.073-20.27-20.276 0-11.191 9.079-20.27 20.27-20.27 11.197 0 20.276 9.079 20.276 20.27 0 11.202-9.08 20.276-20.276 20.276zm570.213-66.048c-8.43 0-16.33 2.29-23.12 6.28v-2.38h-.01c0-1.29.01-2.58.01-3.87v-4.69c.02-9.34.03-18.66.05-27.99h-26.61v124.08h26.56c0-1.26-.01-2.53-.01-3.79h.01v-2.42a45.58 45.58 0 0023.12 6.27c25.26 0 45.75-20.47 45.75-45.75 0-25.25-20.49-45.74-45.75-45.74zm0 66.02c-11.19 0-20.27-9.07-20.27-20.28 0-11.19 9.08-20.27 20.27-20.27 11.2 0 20.27 9.08 20.27 20.27 0 11.21-9.07 20.28-20.27 20.28zm-341.934-20.276c0 25.277 20.49 45.75 45.75 45.75a45.527 45.527 0 0023.114-6.274v2.422c.006-.006.006-.006.011-.006 0 1.262-.006 2.534-.006 3.796h26.556V61.135h-26.606c.017 9.327.028 18.654.045 27.986v1.425c0 1.087.006 2.18.006 3.267 0 1.29.006 2.585.006 3.875-.006 0-.006-.006-.011-.006v2.382a45.475 45.475 0 00-23.114-6.28c-25.261 0-45.751 20.49-45.751 45.745zm25.475 0c0-11.191 9.079-20.27 20.276-20.27 11.191 0 20.27 9.079 20.27 20.27 0 11.202-9.079 20.276-20.27 20.276-11.197 0-20.276-9.074-20.276-20.276zM365.106 93.766v50.002a41.52 41.52 0 01-2.365 13.833c-5.7 16.125-21.076 27.676-39.149 27.676-4.849 0-9.507-.834-13.838-2.365-16.125-5.694-27.676-21.07-27.676-39.144V93.766h24.714v50.301c0 9.242 7.496 16.739 16.739 16.739 9.248 0 16.744-7.496 16.744-16.739V93.766h24.831zm13.832-19.329c0-7.243 6.06-13.302 13.303-13.302 7.243 0 13.303 6.06 13.303 13.302s-6.06 13.302-13.303 13.302c-7.242.001-13.303-6.059-13.303-13.302zm0 19.329h26.605v91.512h-26.605V93.766zm40.458-32.65h26.605v124.163h-26.605V61.116zm193.263 100.939c7.106 0 13.171-2.773 16.638-6.586l20.797 11.959c-8.492 11.785-21.317 17.851-37.781 17.851-29.636 0-48.007-19.931-48.007-45.754s18.717-45.754 46.1-45.754c25.303 0 44.021 19.584 44.021 45.754 0 3.639-.347 7.106-1.039 10.399h-61.525c3.292 9.012 11.264 12.131 20.796 12.131zm15.944-31.542c-2.773-10.052-10.572-13.692-18.371-13.692-9.879 0-16.464 4.853-18.891 13.692h37.262zm74.665-33.457a41.796 41.796 0 00-11.069 6.703v-9.818h-26.606v91.508h26.606v-45.194a20.23 20.23 0 01.687-3.464s1.285-4.376 4.945-8.416c6.868-7.581 19.388-8.681 20.832-8.792l.002-25.643c-3.54.043-9.134.551-15.397 3.116zm194.304-2.941c-25.38 0-45.75 19.85-45.75 45.58 0 25.73 20.37 45.58 45.75 45.58 25.39 0 45.76-19.85 45.76-45.58 0-25.73-20.37-45.58-45.76-45.58zm0 65.85c-11.19 0-20.27-9.06-20.27-20.27 0-11.19 9.08-20.28 20.27-20.28 11.2 0 20.27 9.09 20.27 20.28 0 11.21-9.07 20.27-20.27 20.27z"></path>
      <path d="M1030.674 93.766l-30.331 86.025c-9.933 28.202-25.719 39.376-50.551 38.135v-24.832c12.416 0 18.269-3.902 22.171-14.722l-35.297-84.606h29.266l19.688 54.276 16.673-54.276h28.381z"></path>
    </g>
    <path d="M145.338 41.868c7.707-7.707 7.707-20.205 0-27.912L131.383 0 75.559 55.823l27.912 27.912 41.867-41.867z" fill="#02f7f8"></path>
    <path d="M19.736 0L5.78 13.956c-7.707 7.707-7.707 20.205 0 27.912l41.868 41.868L75.56 55.824 19.736 0z" fill="#6f2af5"></path>
    <path d="M103.471 83.735l-27.912 27.912 27.912 27.912-27.912 27.911-27.912-27.912 27.912-27.912-27.911-27.911L5.78 125.603c-7.707 7.707-7.707 20.205 0 27.912l13.956 13.956 27.912 27.912 27.912 27.912 27.912-27.912 27.912-27.912 13.956-13.956c7.707-7.707 7.707-20.205 0-27.912l-41.869-41.868z" fill="#1b1b1c"></path>
  </symbol>
  <symbol xmlns="http://www.w3.org/2000/svg" viewBox="0 0 1030.674 234.78" id="bbyLogoCreatorWhite">
    <g id="Warstwa_2">
    	<path id="XMLID_28_" style="fill:#FFFFFF;" d="M1030.674,121.244l-30.331,86.025c-9.933,28.202-25.719,39.376-50.551,38.135
    		v-24.832c12.416,0,18.269-3.902,22.171-14.722l-35.297-84.606h29.266l19.688,54.276l16.673-54.276H1030.674z"/>
    	<g id="Warstwa_3">
    		<path id="XMLID_146_" style="fill:#FFFFFF;" d="M228.739,120.941c-8.431,0-16.328,2.292-23.114,6.28v-2.382
    			c-0.006,0-0.006,0.006-0.011,0.006c0-1.29,0.006-2.585,0.006-3.875c0-1.087,0.006-2.18,0.006-3.267v-1.425
    			c0.017-9.332,0.028-18.659,0.045-27.986h-26.606v124.082h26.556c0-1.262-0.006-2.534-0.006-3.796c0.006,0,0.006,0,0.011,0.006
    			v-2.422c6.787,3.982,14.683,6.274,23.114,6.274c25.26,0,45.75-20.473,45.75-45.75
    			C274.489,141.431,253.999,120.941,228.739,120.941z M228.739,186.961c-11.191,0-20.27-9.073-20.27-20.276
    			c0-11.191,9.079-20.27,20.27-20.27c11.197,0,20.276,9.079,20.276,20.27C249.015,177.888,239.935,186.961,228.739,186.961z"/>
    		<path id="XMLID_156_" style="fill:#FFFFFF;" d="M798.952,120.914c-8.43,0-16.33,2.29-23.12,6.28v-2.38c0,0,0,0-0.01,0
    			c0-1.29,0.01-2.58,0.01-3.87v-4.69c0.02-9.34,0.03-18.66,0.05-27.99h-26.61v124.08h26.56c0-1.26-0.01-2.53-0.01-3.79
    			c0.01,0,0.01,0,0.01,0v-2.42c6.79,3.98,14.69,6.27,23.12,6.27c25.26,0,45.75-20.47,45.75-45.75
    			C844.702,141.404,824.212,120.914,798.952,120.914z M798.952,186.934c-11.19,0-20.27-9.07-20.27-20.28
    			c0-11.19,9.08-20.27,20.27-20.27c11.2,0,20.27,9.08,20.27,20.27C819.222,177.864,810.152,186.934,798.952,186.934z"/>
    		<path id="XMLID_123_" style="fill:#FFFFFF;" d="M457.018,166.657c0,25.277,20.49,45.75,45.75,45.75
    			c8.431,0,16.328-2.292,23.114-6.274v2.422c0.006-0.006,0.006-0.006,0.011-0.006c0,1.262-0.006,2.534-0.006,3.796h26.556V88.263
    			h-26.606c0.017,9.327,0.028,18.654,0.045,27.986v1.425c0,1.087,0.006,2.18,0.006,3.267c0,1.29,0.006,2.585,0.006,3.875
    			c-0.006,0-0.006-0.006-0.011-0.006v2.382c-6.787-3.988-14.683-6.28-23.114-6.28C477.508,120.913,457.018,141.403,457.018,166.657z
    			 M482.493,166.657c0-11.191,9.079-20.27,20.276-20.27c11.191,0,20.27,9.079,20.27,20.27c0,11.202-9.079,20.276-20.27,20.276
    			C491.572,186.933,482.493,177.86,482.493,166.657z"/>
    		<path id="XMLID_98_" style="fill:#FFFFFF;" d="M365.106,120.894v50.002c0,4.849-0.839,9.507-2.365,13.833
    			c-5.7,16.125-21.076,27.676-39.149,27.676c-4.849,0-9.507-0.834-13.838-2.365c-16.125-5.694-27.676-21.07-27.676-39.144v-50.002
    			h24.714v50.301c0,9.242,7.496,16.739,16.739,16.739c9.248,0,16.744-7.496,16.744-16.739v-50.301H365.106z"/>
    		<path id="XMLID_7_" style="fill:#FFFFFF;" d="M378.938,101.565c0-7.243,6.06-13.302,13.303-13.302
    			c7.243,0,13.303,6.06,13.303,13.302c0,7.242-6.06,13.302-13.303,13.302C384.999,114.868,378.938,108.808,378.938,101.565z
    			 M378.938,120.894h26.605v91.511h-26.605V120.894z"/>
    		<path id="XMLID_10_" style="fill:#FFFFFF;" d="M419.396,88.245h26.605v124.163h-26.605V88.245z"/>
    		<path id="XMLID_15_" style="fill:#FFFFFF;" d="M612.659,189.184c7.106,0,13.171-2.773,16.638-6.586l20.797,11.959
    			c-8.492,11.785-21.317,17.851-37.781,17.851c-29.636,0-48.007-19.931-48.007-45.754s18.717-45.754,46.1-45.754
    			c25.303,0,44.021,19.584,44.021,45.754c0,3.639-0.347,7.106-1.039,10.399h-61.525
    			C595.155,186.064,603.127,189.184,612.659,189.184z M628.603,157.641c-2.773-10.052-10.572-13.692-18.371-13.692
    			c-9.879,0-16.464,4.853-18.891,13.692H628.603z"/>
    		<path id="XMLID_116_" style="fill:#FFFFFF;" d="M703.268,124.184c-4.954,2.029-8.628,4.649-11.069,6.703v-9.818h-26.606v91.508
    			h26.606V169.67v-2.286c0.134-1.187,0.357-2.347,0.687-3.464c0,0,1.285-4.376,4.945-8.416c6.868-7.581,19.388-8.681,20.832-8.792
    			c0.001-8.548,0.001-17.096,0.002-25.643C715.125,121.111,709.531,121.619,703.268,124.184z"/>
    		<path id="XMLID_25_" style="fill:#FFFFFF;" d="M897.572,121.244c-25.38,0-45.75,19.85-45.75,45.58
    			c0,25.73,20.37,45.58,45.75,45.58c25.39,0,45.76-19.85,45.76-45.58C943.332,141.094,922.962,121.244,897.572,121.244z
    			 M897.572,187.094c-11.19,0-20.27-9.06-20.27-20.27c0-11.19,9.08-20.28,20.27-20.28c11.2,0,20.27,9.09,20.27,20.28
    			C917.842,178.034,908.772,187.094,897.572,187.094z"/>
    	</g>
    	<g id="XMLID_4_" style="display:none;">
    		<path id="XMLID_5_" style="display:inline;" d="M201.076,37.733v2.854h-21.864V0.628h3.025v37.105H201.076z"/>
    		<path id="XMLID_12_" style="display:inline;" d="M202.219,20.608C202.219,9.191,211.295,0,222.826,0
    			c11.532,0,20.608,9.191,20.608,20.608s-9.076,20.608-20.608,20.608C211.295,41.215,202.219,32.025,202.219,20.608z
    			 M240.408,20.608c0-9.819-7.706-17.697-17.582-17.697c-9.875,0-17.581,7.878-17.581,17.697c0,9.818,7.706,17.696,17.581,17.696
    			C232.702,38.304,240.408,30.426,240.408,20.608z"/>
    		<path id="XMLID_18_" style="display:inline;" d="M289.103,23.519c0,9.647-7.364,17.697-19.294,17.697
    			c-12.387,0-21.007-9.191-21.007-20.608S257.422,0,269.581,0c7.421,0,13.871,3.882,17.182,9.647l-2.682,1.598
    			c-2.626-5.023-8.22-8.335-14.499-8.335c-10.504,0-17.753,7.878-17.753,17.697c0,9.818,7.249,17.696,17.982,17.696
    			c9.704,0,15.584-5.994,16.212-13.472h-16.954v-2.854h20.036V23.519z"/>
    		<path id="XMLID_23_" style="display:inline;" d="M294.414,20.608C294.414,9.191,303.49,0,315.022,0
    			c11.531,0,20.607,9.191,20.607,20.608s-9.076,20.608-20.607,20.608C303.49,41.215,294.414,32.025,294.414,20.608z M332.604,20.608
    			c0-9.819-7.706-17.697-17.581-17.697c-9.876,0-17.582,7.878-17.582,17.697c0,9.818,7.706,17.696,17.582,17.696
    			C324.897,38.304,332.604,30.426,332.604,20.608z"/>
    	</g>
    	<g id="XMLID_55_">
    		<path id="XMLID_64_" style="fill:#FFFFFF;" d="M203.13,43.588v9.04h-24.067v-41.09h9.392v32.05H203.13z"/>
    		<path id="XMLID_61_" style="fill:#FFFFFF;" d="M203.129,32.083c0-12.092,9.568-21.367,21.367-21.367s21.367,9.274,21.367,21.367
    			s-9.568,21.367-21.367,21.367S203.129,44.175,203.129,32.083z M236.471,32.083c0-7.337-5.283-12.209-11.975-12.209
    			s-11.975,4.872-11.975,12.209c0,7.338,5.283,12.21,11.975,12.21S236.471,39.42,236.471,32.083z"/>
    		<path id="XMLID_59_" style="fill:#FFFFFF;" d="M291.821,33.257c0,12.562-8.747,20.193-20.252,20.193
    			c-12.914,0-22.188-9.509-22.188-21.308c0-11.917,9.451-21.426,21.543-21.426c7.866,0,14.499,3.874,17.962,9.392l-7.983,4.579
    			c-1.702-2.7-5.4-4.813-10.038-4.813c-6.927,0-12.092,5.107-12.092,12.327c0,6.985,4.931,12.092,12.914,12.092
    			c5.459,0,9.04-2.407,10.507-6.34h-10.977v-8.218h20.604V33.257z"/>
    		<path id="XMLID_56_" style="fill:#FFFFFF;" d="M295.34,32.083c0-12.092,9.568-21.367,21.367-21.367s21.367,9.274,21.367,21.367
    			s-9.568,21.367-21.367,21.367S295.34,44.175,295.34,32.083z M328.682,32.083c0-7.337-5.283-12.209-11.975-12.209
    			s-11.975,4.872-11.975,12.209c0,7.338,5.283,12.21,11.975,12.21S328.682,39.42,328.682,32.083z"/>
    	</g>
    </g>
    <g id="XMLID_154_">
    	<g id="XMLID_84_">
    		<path id="XMLID_87_" style="fill:#02F7F8;" d="M145.338,41.868c7.707-7.707,7.707-20.205,0-27.912L131.383,0L75.559,55.823
    			l27.912,27.912L145.338,41.868z"/>
    		<path id="XMLID_86_" style="fill:#6F2AF5;" d="M19.736,0L5.78,13.956c-7.707,7.707-7.707,20.205,0,27.912l41.868,41.868
    			l27.912-27.912L19.736,0z"/>
    		<path id="XMLID_85_" style="fill:#FFFFFF;" d="M103.471,83.735l-27.912,27.912l27.912,27.912L75.559,167.47l-27.912-27.912
    			l27.912-27.912L47.648,83.735L5.78,125.603c-7.707,7.707-7.707,20.205,0,27.912l13.956,13.956l27.912,27.912l27.912,27.912
    			l27.912-27.912l27.912-27.912l13.956-13.956c7.707-7.707,7.707-20.205,0-27.912L103.471,83.735z"/>
    	</g>
    </g>
    <g id="XMLID_68_">
    </g>
    <g id="XMLID_69_">
    </g>
    <g id="XMLID_70_">
    </g>
    <g id="XMLID_71_">
    </g>
    <g id="XMLID_72_">
    </g>
    <g id="XMLID_73_">
    </g>
  </symbol>
  <symbol xmlns="http://www.w3.org/2000/svg" viewBox="0 0 1030.674 223.293" id="bbyLogoWhite">
    <g fill="#fff">
      <path d="M228.739 93.813a45.473 45.473 0 00-23.114 6.28V97.71c-.006 0-.006.006-.011.006 0-1.29.006-2.585.006-3.875 0-1.087.006-2.18.006-3.267v-1.425c.017-9.332.028-18.659.045-27.986h-26.606v124.082h26.556c0-1.262-.006-2.534-.006-3.796.006 0 .006 0 .011.006v-2.422a45.53 45.53 0 0023.114 6.274c25.26 0 45.75-20.473 45.75-45.75-.001-25.255-20.491-45.744-45.751-45.744zm0 66.02c-11.191 0-20.27-9.073-20.27-20.276 0-11.191 9.079-20.27 20.27-20.27 11.197 0 20.276 9.079 20.276 20.27 0 11.202-9.08 20.276-20.276 20.276zm570.213-66.048c-8.43 0-16.33 2.29-23.12 6.28v-2.38h-.01c0-1.29.01-2.58.01-3.87v-4.69c.02-9.34.03-18.66.05-27.99h-26.61v124.08h26.56c0-1.26-.01-2.53-.01-3.79h.01v-2.42a45.58 45.58 0 0023.12 6.27c25.26 0 45.75-20.47 45.75-45.75 0-25.25-20.49-45.74-45.75-45.74zm0 66.02c-11.19 0-20.27-9.07-20.27-20.28 0-11.19 9.08-20.27 20.27-20.27 11.2 0 20.27 9.08 20.27 20.27 0 11.21-9.07 20.28-20.27 20.28zm-341.934-20.276c0 25.277 20.49 45.75 45.75 45.75a45.527 45.527 0 0023.114-6.274v2.422c.006-.006.006-.006.011-.006 0 1.262-.006 2.534-.006 3.796h26.556V61.135h-26.606c.017 9.327.028 18.654.045 27.986v1.425c0 1.087.006 2.18.006 3.267 0 1.29.006 2.585.006 3.875-.006 0-.006-.006-.011-.006v2.382a45.475 45.475 0 00-23.114-6.28c-25.261 0-45.751 20.49-45.751 45.745zm25.475 0c0-11.191 9.079-20.27 20.276-20.27 11.191 0 20.27 9.079 20.27 20.27 0 11.202-9.079 20.276-20.27 20.276-11.197 0-20.276-9.074-20.276-20.276zM365.106 93.766v50.002a41.52 41.52 0 01-2.365 13.833c-5.7 16.125-21.076 27.676-39.149 27.676-4.849 0-9.507-.834-13.838-2.365-16.125-5.694-27.676-21.07-27.676-39.144V93.766h24.714v50.301c0 9.242 7.496 16.739 16.739 16.739 9.248 0 16.744-7.496 16.744-16.739V93.766h24.831zm13.832-19.329c0-7.243 6.06-13.302 13.303-13.302 7.243 0 13.303 6.06 13.303 13.302s-6.06 13.302-13.303 13.302c-7.242.001-13.303-6.059-13.303-13.302zm0 19.329h26.605v91.512h-26.605V93.766zm40.458-32.65h26.605v124.163h-26.605V61.116zm193.263 100.939c7.106 0 13.171-2.773 16.638-6.586l20.797 11.959c-8.492 11.785-21.317 17.851-37.781 17.851-29.636 0-48.007-19.931-48.007-45.754s18.717-45.754 46.1-45.754c25.303 0 44.021 19.584 44.021 45.754 0 3.639-.347 7.106-1.039 10.399h-61.525c3.292 9.012 11.264 12.131 20.796 12.131zm15.944-31.542c-2.773-10.052-10.572-13.692-18.371-13.692-9.879 0-16.464 4.853-18.891 13.692h37.262zm74.665-33.457a41.796 41.796 0 00-11.069 6.703v-9.818h-26.606v91.508h26.606v-45.194a20.23 20.23 0 01.687-3.464s1.285-4.376 4.945-8.416c6.868-7.581 19.388-8.681 20.832-8.792l.002-25.643c-3.54.043-9.134.551-15.397 3.116zm194.304-2.941c-25.38 0-45.75 19.85-45.75 45.58 0 25.73 20.37 45.58 45.75 45.58 25.39 0 45.76-19.85 45.76-45.58 0-25.73-20.37-45.58-45.76-45.58zm0 65.85c-11.19 0-20.27-9.06-20.27-20.27 0-11.19 9.08-20.28 20.27-20.28 11.2 0 20.27 9.09 20.27 20.28 0 11.21-9.07 20.27-20.27 20.27z"></path>
      <path d="M1030.674 93.766l-30.331 86.025c-9.933 28.202-25.719 39.376-50.551 38.135v-24.832c12.416 0 18.269-3.902 22.171-14.722l-35.297-84.606h29.266l19.688 54.276 16.673-54.276h28.381z"></path>
    </g>
    <path d="M145.338 41.868c7.707-7.707 7.707-20.205 0-27.912L131.383 0 75.559 55.823l27.912 27.912 41.867-41.867z" fill="#02f7f8"></path>
    <path d="M19.736 0L5.78 13.956c-7.707 7.707-7.707 20.205 0 27.912l41.868 41.868L75.56 55.824 19.736 0z" fill="#6f2af5"></path>
    <path d="M103.471 83.735l-27.912 27.912 27.912 27.912-27.912 27.911-27.912-27.912 27.912-27.912-27.911-27.911L5.78 125.603c-7.707 7.707-7.707 20.205 0 27.912l13.956 13.956 27.912 27.912 27.912 27.912 27.912-27.912 27.912-27.912 13.956-13.956c7.707-7.707 7.707-20.205 0-27.912l-41.869-41.868z" fill="#fff"></path>
  </symbol>
  <symbol xmlns="http://www.w3.org/2000/svg" viewBox="-583 485 32 32" id="bbyMenu">
    <path d="M-552.261 512.08h-29.478c-.676 0-1.23-.553-1.23-1.23 0-.677.554-1.23 1.23-1.23h29.478c.676 0 1.23.553 1.23 1.23 0 .676-.554 1.23-1.23 1.23zm0-9.85h-29.478c-.676 0-1.23-.553-1.23-1.23 0-.677.554-1.23 1.23-1.23h29.478c.676 0 1.23.553 1.23 1.23 0 .677-.554 1.23-1.23 1.23zm0-9.85h-29.478c-.676 0-1.23-.553-1.23-1.23 0-.677.554-1.23 1.23-1.23h29.478c.676 0 1.23.553 1.23 1.23 0 .677-.554 1.23-1.23 1.23z"></path>
  </symbol>
  <symbol xmlns="http://www.w3.org/2000/svg" viewBox="-583 485 32 32" id="bbySave">
    <path d="M-567.808 512.094a1.144 1.144 0 001.951-.808v-25.143a1.143 1.143 0 00-2.286 0v22.384l-8.335-8.335a1.141 1.141 0 00-1.616 0 1.141 1.141 0 000 1.616l10.286 10.286zm5.379-4.237c.293 0 .585-.112.808-.335l5.714-5.714a1.141 1.141 0 10-1.616-1.615l-5.714 5.714a1.141 1.141 0 00.808 1.95z"></path>
    <path d="M-552.143 506.714c-.632 0-1.143.511-1.143 1.143v6.857h-27.429v-6.857a1.143 1.143 0 10-2.286 0v8c0 .632.512 1.143 1.143 1.143h29.714c.632 0 1.143-.511 1.143-1.143v-8a1.14 1.14 0 00-1.142-1.143z"></path>
  </symbol>
  <symbol xmlns="http://www.w3.org/2000/svg" viewBox="-583 485 32 32" id="bbySettings">
    <path d="M-551 501a4.58 4.58 0 00-3.779-4.503l-.397-.954a4.578 4.578 0 00-.511-5.856c-1.538-1.538-4.113-1.738-5.857-.512l-.954-.395c-.376-2.145-2.252-3.78-4.502-3.78s-4.127 1.635-4.503 3.779l-.954.395a4.58 4.58 0 00-5.856.512 4.538 4.538 0 00-1.339 3.233c0 .952.289 1.861.827 2.624l-.395.953A4.58 4.58 0 00-583 501a4.579 4.579 0 003.779 4.503l.395.953a4.58 4.58 0 00.512 5.857c1.536 1.537 4.115 1.738 5.857.512l.954.395a4.58 4.58 0 004.503 3.779 4.577 4.577 0 004.502-3.779l.954-.397a4.577 4.577 0 005.857-.511 4.54 4.54 0 001.339-3.233c0-.952-.29-1.861-.827-2.624l.395-.953A4.575 4.575 0 00-551 501c0 .001 0 .001 0 0zm-4.571 2.288c-.462 0-.879.278-1.056.705l-.923 2.226c-.177.427-.079.919.248 1.246a2.27 2.27 0 01.67 1.616c0 .611-.238 1.185-.67 1.617a2.291 2.291 0 01-3.233 0 1.143 1.143 0 00-1.246-.248l-2.227.923a1.143 1.143 0 00-.705 1.056c0 1.261-1.025 2.286-2.286 2.286s-2.286-1.025-2.286-2.286c0-.462-.279-.88-.705-1.056l-2.229-.923a1.143 1.143 0 00-1.246.248c-.864.864-2.368.864-3.232 0a2.29 2.29 0 010-3.233c.327-.327.425-.818.248-1.246l-.923-2.226a1.143 1.143 0 00-1.056-.705 2.288 2.288 0 01-2.286-2.287 2.288 2.288 0 012.286-2.286c.462 0 .879-.279 1.056-.705l.923-2.229a1.143 1.143 0 00-.248-1.246 2.27 2.27 0 01-.67-1.616c0-.61.238-1.185.67-1.617a2.29 2.29 0 013.233 0c.327.327.818.423 1.246.248l2.227-.923c.426-.177.705-.594.705-1.056 0-1.261 1.025-2.286 2.286-2.286s2.286 1.025 2.286 2.286c0 .462.279.879.705 1.056l2.229.923c.427.176.919.08 1.246-.248.864-.864 2.368-.864 3.232 0 .89.891.89 2.342 0 3.233a1.143 1.143 0 00-.248 1.246l.923 2.229c.176.425.594.704 1.056.704a2.288 2.288 0 012.286 2.286 2.29 2.29 0 01-2.286 2.288z"></path>
    <path d="M-567 495.286c-3.151 0-5.714 2.563-5.714 5.714s2.563 5.714 5.714 5.714a1.143 1.143 0 100-2.286c-1.89 0-3.429-1.538-3.429-3.429s1.538-3.429 3.429-3.429a3.433 3.433 0 012.879 5.294 1.143 1.143 0 101.918 1.244c.6-.926.918-2.001.918-3.109a5.721 5.721 0 00-5.715-5.713z"></path>
  </symbol>
  <symbol xmlns="http://www.w3.org/2000/svg" viewBox="0 0 151.118 223.293" id="bbySymbolColor">
    <path d="M145.338 41.868c7.707-7.707 7.707-20.205 0-27.912L131.383 0 75.559 55.823l27.912 27.912 41.867-41.867z" fill="#02f7f8"></path>
    <path d="M19.736 0L5.78 13.956c-7.707 7.707-7.707 20.205 0 27.912l41.868 41.868L75.56 55.824 19.736 0z" fill="#6f2af5"></path>
    <path d="M103.471 83.735l-27.912 27.912 27.912 27.912-27.912 27.911-27.912-27.912 27.912-27.912-27.911-27.911L5.78 125.603c-7.707 7.707-7.707 20.205 0 27.912l13.956 13.956 27.912 27.912 27.912 27.912 27.912-27.912 27.912-27.912 13.956-13.956c7.707-7.707 7.707-20.205 0-27.912l-41.869-41.868z" fill="#1b1b1c"></path>
  </symbol>
  <symbol xmlns="http://www.w3.org/2000/svg" viewBox="0 0 151.118 223.293" id="bbySymbolWhite">
    <path d="M145.338 41.868c7.707-7.707 7.707-20.205 0-27.912L131.383 0 75.559 55.823l27.912 27.912 41.867-41.867z" fill="#02f7f8"></path>
    <path d="M19.736 0L5.78 13.956c-7.707 7.707-7.707 20.205 0 27.912l41.868 41.868L75.56 55.824 19.736 0z" fill="#6f2af5"></path>
    <path d="M103.471 83.735l-27.912 27.912 27.912 27.912-27.912 27.911-27.912-27.912 27.912-27.912-27.911-27.911L5.78 125.603c-7.707 7.707-7.707 20.205 0 27.912l13.956 13.956 27.912 27.912 27.912 27.912 27.912-27.912 27.912-27.912 13.956-13.956c7.707-7.707 7.707-20.205 0-27.912l-41.869-41.868z" fill="#fff"></path>
  </symbol>
  <symbol xmlns="http://www.w3.org/2000/svg" viewBox="-583 485 32 32" id="bbyDown">
    <path id="XMLID_9_" d="M-551.339,494.408l-14.833,14.833c-0.459,0.459-1.198,0.459-1.649,0l-14.841-14.833
  	c-0.451-0.459-0.451-1.198,0-1.649c0.459-0.459,1.19-0.459,1.649,0l14.016,14.009l14.008-14.009c0.459-0.459,1.19-0.459,1.649,0
  	C-550.888,493.21-550.888,493.949-551.339,494.408z"/>
  </symbol>
  <symbol xmlns="http://www.w3.org/2000/svg" viewBox="-583 485 32 32" id="bbyWarn">
    <path d="M-552.3,511.8l-3.3-5.4v-7.7c0-5.9-4.5-10.8-10.3-11.4v-1.2c0-0.6-0.5-1.1-1.1-1.1s-1.1,0.5-1.1,1.1v2.3
	c0,0.6,0.5,1.1,1.1,1.1c5,0,9.1,4.1,9.1,9.1v8c0,0.2,0.1,0.4,0.2,0.6l2.4,4h-23.4l2.4-4c0.1-0.2,0.2-0.4,0.2-0.6v-8
	c0-3.5,2.1-6.8,5.2-8.3c0.6-0.3,0.8-1,0.5-1.5c-0.3-0.6-1-0.8-1.5-0.5c-4,1.9-6.5,5.9-6.5,10.3v7.7l-3.3,5.4c-0.2,0.4-0.2,0.8,0,1.2
	c0.2,0.4,0.6,0.6,1,0.6h9.3c0.5,2,2.3,3.4,4.4,3.4c2.1,0,3.9-1.5,4.4-3.4h9.3c0.4,0,0.8-0.2,1-0.6
	C-552.1,512.6-552.1,512.2-552.3,511.8z M-567,514.7c-0.8,0-1.6-0.5-2-1.1h3.9C-565.4,514.3-566.2,514.7-567,514.7z"/>
  </symbol>
  <symbol xmlns="http://www.w3.org/2000/svg" viewBox="-583 485 32 32" id="bbyError">
    <path d="M-566.7,509.9h-0.6c-0.8,0-1.5-0.7-1.5-1.5v-21.9c0-0.8,0.7-1.5,1.5-1.5h0.6c0.8,0,1.5,0.7,1.5,1.5v21.9 C-565.2,509.2-565.9,509.9-566.7,509.9z"/> <circle cx="-567" cy="514.6" r="2.4"/>
  </symbol>
  <symbol xmlns="http://www.w3.org/2000/svg" viewBox="-5 7 20 20" id="bbyColorBucket">
    <style type="text/css">
    	.st0{fill:#222222;}
    </style>
    <g id="layer1">
    	<path class="st0" d="M1,7.3L0.3,8l2.5,2.5L-4.7,18L4,26.7l9.7-9.7L5,8.3L3.5,9.8L1,7.3z M5,9.7l7.3,7.3H-2.3l5.8-5.8l3.9,3.9
    		l0.7-0.7l-3.9-3.9L5,9.7z M13.5,17.5l-1.3,2.3L12.1,20L12,20.2l0,0.2l0,0.2l0,0.2l0.1,0.2l0.1,0.2l0.1,0.2l0.2,0.2l0.2,0.1l0.2,0.1
    		l0.2,0.1l0.2,0h0.2l0.2,0l0.2-0.1l0.2-0.1l0.2-0.1l0.2-0.2l0.1-0.2l0.1-0.2l0.1-0.2l0-0.2l0-0.2l0-0.2L14.9,20l-0.1-0.2L13.5,17.5z
    		 M-3.3,18h14.6L4,25.3L-3.3,18z M13.5,19.5l0.4,0.7l0.1,0.1l0,0.1l0,0.1l-0.1,0.1l-0.1,0.1l-0.1,0.1l-0.1,0l-0.1,0l-0.1,0l-0.1,0
    		l-0.1-0.1l-0.1-0.1L13,20.6l0-0.1l0-0.1l0.1-0.1L13.5,19.5z"/>
    </g>
  </symbol>
  <symbol xmlns="http://www.w3.org/2000/svg" viewBox="240 -240 512 512" id="bbyMenuDot">
    <g>
			<circle cx="496" cy="16" r="64"/>
			<circle cx="496" cy="208" r="64"/>
			<circle cx="496" cy="-176" r="64"/>
		</g>
  </symbol>
  <symbol xmlns="http://www.w3.org/2000/svg" viewBox="-1983 1245 32 32" id="bbyInfo">
    <g>
    	<path d="M-1967,1275c-3.7,0-7.3-1.5-9.9-4.1c-4.3-4.3-5.3-10.9-2.6-16.3c0.3-0.5,0.9-0.7,1.3-0.4c0.5,0.3,0.7,0.9,0.4,1.3
    		c-2.4,4.7-1.5,10.3,2.2,14c2.3,2.3,5.3,3.5,8.5,3.5c3.2,0,6.2-1.2,8.5-3.5s3.5-5.3,3.5-8.5c0-3.2-1.2-6.2-3.5-8.5s-5.3-3.5-8.5-3.5
    		s-6.2,1.2-8.5,3.5c-0.4,0.4-1,0.4-1.4,0s-0.4-1,0-1.4c2.6-2.6,6.2-4.1,9.9-4.1s7.3,1.5,9.9,4.1c2.6,2.6,4.1,6.2,4.1,9.9
    		c0,3.7-1.5,7.3-4.1,9.9C-1959.7,1273.5-1963.3,1275-1967,1275z"/>
    </g>
    <g>
    	<path d="M-1968,1267.6v-8.7c0-0.5,0.4-0.9,1-0.9s1,0.4,1,0.9v8.7c0,0.5-0.4,0.9-1,0.9S-1968,1268.1-1968,1267.6z"/>
    	<circle cx="-1967" cy="1254.6" r="1.1"/>
    </g>
  </symbol>
  <symbol xmlns="http://www.w3.org/2000/svg" viewBox="0 0 90.71 90.71" id="bbySvg">
    <path id="XMLID_1_" d="M17.56,12.621c0-1.824,1.485-3.309,3.309-3.309h28.935v11.765c0,5.474,4.453,9.927,9.927,9.927h11.746v19.67
    	h6.618V26.329L54.58,2.694h-33.71c-5.474,0-9.927,4.453-9.927,9.927v38.052h6.618V12.621z M56.422,13.928l10.404,10.457h-7.095
    	c-1.825,0-3.309-1.484-3.309-3.309V13.928z M26.387,78.341c0,6.075-4.86,9.675-11.699,9.675c-6.615,0-10.845-3.149-12.6-7.784
    	l6.209-3.6c1.125,2.609,3.06,4.364,6.615,4.364c3.42,0,4.275-1.351,4.275-2.565c0-1.935-1.8-2.699-6.524-4.004
    	c-4.68-1.306-9.27-3.555-9.27-9.585c0-6.075,5.13-9.585,10.575-9.585c5.175,0,9.225,2.475,11.52,7.109l-6.075,3.555
    	c-1.08-2.249-2.565-3.645-5.445-3.645c-2.25,0-3.375,1.125-3.375,2.385c0,1.44,0.765,2.431,5.67,3.916
    	C21.033,70.017,26.387,71.681,26.387,78.341z M48.213,55.888h7.874l-10.26,31.498h-9.179l-10.26-31.498h7.875l6.975,23.174
    	L48.213,55.888z M88.622,69.837v2.699c0,9.63-6.705,15.479-15.524,15.479c-9.899,0-17.009-7.29-17.009-16.335
    	c0-9.134,7.244-16.424,16.514-16.424c6.029,0,11.114,2.971,13.77,7.199l-6.12,3.511c-1.305-2.07-4.14-3.69-7.694-3.69
    	c-5.311,0-9.27,3.915-9.27,9.45c0,5.354,3.779,9.27,9.899,9.27c4.185,0,6.93-1.845,8.055-4.86h-8.415v-6.299H88.622z"/>
  </symbol>
  <symbol xmlns="http://www.w3.org/2000/svg" viewBox="0 0 90.71 90.71" id="bbyPng">
    <path id="XMLID_1_" d="M71.477,31.003v19.67h6.618V26.329L54.58,2.694h-33.71c-5.474,0-9.927,4.453-9.927,9.927v38.052h6.618V12.621
  	c0-1.824,1.485-3.309,3.309-3.309h28.935v11.765c0,5.474,4.453,9.927,9.927,9.927H71.477z M56.422,21.076v-7.148l10.404,10.457
  	h-7.095C57.905,24.385,56.422,22.902,56.422,21.076z M13.338,56.195H1.413v31.498h7.2v-9.899h4.725
  	c6.209,0,11.024-4.815,11.024-10.8S19.548,56.195,13.338,56.195z M13.338,71.044H8.613v-8.1h4.725c2.205,0,3.825,1.755,3.825,4.05
  	S15.543,71.044,13.338,71.044z M89.297,70.145v2.699c0,9.63-6.704,15.479-15.524,15.479c-9.899,0-17.009-7.29-17.009-16.335
  	c0-9.134,7.245-16.424,16.515-16.424c6.029,0,11.114,2.971,13.769,7.199l-6.119,3.511c-1.305-2.07-4.14-3.69-7.695-3.69
  	c-5.31,0-9.269,3.915-9.269,9.45c0,5.354,3.779,9.27,9.899,9.27c4.185,0,6.93-1.845,8.055-4.86h-8.415v-6.299H89.297z
  	 M45.512,56.195h7.199v31.498h-5.398l-12.15-17.1v17.1h-7.2V56.195h5.4l12.149,17.099V56.195z"/>
  </symbol>
  <symbol xmlns="http://www.w3.org/2000/svg" viewBox="0 0 90.71 90.71" id="bbyCopyUrl">
    <path id="XMLID_1_" d="M85.715,11.675v38.05h-6.62v-38.05c0-1.83-1.48-3.31-3.31-3.31h-38.05v-6.62h38.05
  	C81.265,1.745,85.715,6.195,85.715,11.675z M72.147,25.241v15.745v22.307v15.745c0,5.474-4.453,9.927-9.927,9.927H43.795H33.306
  	H14.921c-5.474,0-9.927-4.453-9.927-9.927V63.293V40.986V25.241c0-5.474,4.453-9.927,9.927-9.927h18.385h10.489H62.22
  	C67.694,15.314,72.147,19.767,72.147,25.241z M65.529,40.986V25.241c0-1.824-1.485-3.309-3.309-3.309H43.693h-9.876H14.921
  	c-1.824,0-3.309,1.485-3.309,3.309v15.745v22.307v15.745c0,1.824,1.485,3.309,3.309,3.309h18.896h9.876H62.22
  	c1.824,0,3.309-1.485,3.309-3.309V63.293V40.986z"/>
  </symbol>
  <symbol xmlns="http://www.w3.org/2000/svg" viewBox="0 0 1000 1000" id="bbyIconPositionLeft">
    <path id="XMLID_1_" style="fill:#808285" class="st0" d="M365,601.3H185c-5.5,0-10-4.5-10-10v-180c0-5.5,4.5-10,10-10h180c5.5,0,10,4.5,10,10v180
    	C375,596.8,370.5,601.3,365,601.3z"/>
    <path id="XMLID_2_" style="fill:#A7A9AC" class="st1" d="M812,583.8H438c-7.2,0-13-5.8-13-13V426.8c0-7.2,5.8-13,13-13H812c7.2,0,13,5.8,13,13v143.9
    	C825,577.9,819.2,583.8,812,583.8z"/>
  </symbol>
  <symbol xmlns="http://www.w3.org/2000/svg" viewBox="0 0 1000 1000" id="bbyIconPositionTop">
    <path id="XMLID_20_" class="st0" style="fill:#808285" d="M577,475H424c-4.7,0-8.5-3.8-8.5-8.5v-153c0-4.7,3.8-8.5,8.5-8.5h153c4.7,0,8.5,3.8,8.5,8.5v153
      	C585.5,471.2,581.7,475,577,475z"/>
      <path id="XMLID_19_" class="st1" style="fill:#A7A9AC" d="M726.2,695H274.8c-7.9,0-14.3-6.4-14.3-14.3V539.3c0-7.9,6.4-14.3,14.3-14.3h451.4
      	c7.9,0,14.3,6.4,14.3,14.3v141.4C740.5,688.6,734.1,695,726.2,695z"/>
  </symbol>
  <symbol xmlns="http://www.w3.org/2000/svg" viewBox="-26 550.9 32 32" id="bbyMail">
    <g>
    	<path id="XMLID_17_" d="M4.9,579.4h-29.7c-0.6,0-1.1-0.5-1.1-1.1V560c0-0.6,0.5-1.1,1.1-1.1s1.1,0.5,1.1,1.1v17.1H3.7v-20.6h-28.6
    		c-0.6,0-1.1-0.5-1.1-1.1c0-0.6,0.5-1.1,1.1-1.1H4.9c0.6,0,1.1,0.5,1.1,1.1v22.9C6,578.9,5.5,579.4,4.9,579.4z"/>
    </g>
    <g>
    	<path id="XMLID_16_" d="M-10,570.3c-0.3,0-0.6-0.1-0.8-0.3l-9.1-9.1c-0.4-0.4-0.4-1.2,0-1.6c0.4-0.4,1.2-0.4,1.6,0l8.3,8.3l8.3-8.3
    		c0.4-0.4,1.2-0.4,1.6,0c0.4,0.4,0.4,1.2,0,1.6l-9.1,9.1C-9.4,570.2-9.7,570.3-10,570.3z"/>
    </g>
    <g>
    	<path id="XMLID_15_" d="M-0.9,574.9c-0.3,0-0.6-0.1-0.8-0.3l-3.4-3.4c-0.4-0.4-0.4-1.2,0-1.6c0.4-0.4,1.2-0.4,1.6,0l3.4,3.4
    		c0.4,0.4,0.4,1.2,0,1.6C-0.3,574.7-0.6,574.9-0.9,574.9z"/>
    </g>
    <g>
    	<path id="XMLID_14_" d="M-19.1,574.9c-0.3,0-0.6-0.1-0.8-0.3c-0.4-0.4-0.4-1.2,0-1.6l3.4-3.4c0.4-0.4,1.2-0.4,1.6,0
    		c0.4,0.4,0.4,1.2,0,1.6l-3.4,3.4C-18.6,574.7-18.8,574.9-19.1,574.9z"/>
    </g>
  </symbol>
  <symbol xmlns="http://www.w3.org/2000/svg" id="facebook" viewBox="0 0 24 24">
    <path d="m15.997 3.985h2.191v-3.816c-.378-.052-1.678-.169-3.192-.169-3.159 0-5.323 1.987-5.323 5.639v3.361h-3.486v4.266h3.486v10.734h4.274v-10.733h3.345l.531-4.266h-3.877v-2.939c.001-1.233.333-2.077 2.051-2.077z"/>
  </symbol>
  <symbol xmlns="http://www.w3.org/2000/svg" id="behance" viewBox="0 0 24 24">
    <path d="m12.363 14.947c0-1.848-.879-3.214-2.695-3.726 1.325-.631 2.016-1.587 2.016-3.074 0-2.932-2.192-3.647-4.721-3.647h-6.963v14.721h7.158c2.684 0 5.205-1.283 5.205-4.274zm-9.117-7.934h3.046c1.171 0 2.225.328 2.225 1.682 0 1.25-.82 1.753-1.98 1.753h-3.291zm-.001 9.708v-4.054h3.538c1.429 0 2.333.594 2.333 2.102 0 1.487-1.079 1.952-2.4 1.952z"/><path d="m18.796 19.5c2.554 0 4.208-1.147 5.004-3.585h-2.592c-.279.91-1.429 1.391-2.321 1.391-1.721 0-2.625-1.005-2.625-2.713h7.713c.244-3.418-1.66-6.331-5.18-6.331-3.259 0-5.471 2.442-5.471 5.641 0 3.32 2.096 5.597 5.472 5.597zm-.092-9.026c1.475 0 2.217.864 2.341 2.277h-4.779c.097-1.401 1.03-2.277 2.438-2.277z"/><path d="m15.667 5.273h5.988v1.45h-5.988z"/>
  </symbol>
  <symbol xmlns="http://www.w3.org/2000/svg" id="instagram" viewBox="0 0 24 24">
    <path d="m12.004 5.838c-3.403 0-6.158 2.758-6.158 6.158 0 3.403 2.758 6.158 6.158 6.158 3.403 0 6.158-2.758 6.158-6.158 0-3.403-2.758-6.158-6.158-6.158zm0 10.155c-2.209 0-3.997-1.789-3.997-3.997s1.789-3.997 3.997-3.997 3.997 1.789 3.997 3.997c.001 2.208-1.788 3.997-3.997 3.997z"/><path d="m16.948.076c-2.208-.103-7.677-.098-9.887 0-1.942.091-3.655.56-5.036 1.941-2.308 2.308-2.013 5.418-2.013 9.979 0 4.668-.26 7.706 2.013 9.979 2.317 2.316 5.472 2.013 9.979 2.013 4.624 0 6.22.003 7.855-.63 2.223-.863 3.901-2.85 4.065-6.419.104-2.209.098-7.677 0-9.887-.198-4.213-2.459-6.768-6.976-6.976zm3.495 20.372c-1.513 1.513-3.612 1.378-8.468 1.378-5 0-7.005.074-8.468-1.393-1.685-1.677-1.38-4.37-1.38-8.453 0-5.525-.567-9.504 4.978-9.788 1.274-.045 1.649-.06 4.856-.06l.045.03c5.329 0 9.51-.558 9.761 4.986.057 1.265.07 1.645.07 4.847-.001 4.942.093 6.959-1.394 8.453z"/><circle cx="18.406" cy="5.595" r="1.439"/>
  </symbol>
  <symbol xmlns="http://www.w3.org/2000/svg" id="dribbble" viewBox="0 0 24 24">
    <path d="m12 24c6.617 0 12-5.384 12-12s-5.384-12-12-12-12 5.383-12 12 5.383 12 12 12zm0-22.5c5.788 0 10.5 4.71 10.5 10.5 0 5.788-4.712 10.5-10.5 10.5-5.79 0-10.5-4.712-10.5-10.5 0-5.79 4.71-10.5 10.5-10.5z"/><path d="m17.742 5.071c-1.558-1.294-3.559-2.071-5.742-2.071-.63 0-1.245.066-1.839.189 1.092 1.548 2.084 3.159 2.957 4.829 1.651-.77 3.205-1.763 4.624-2.947z"/><path d="m14.866 11.852c1.992-.41 4.065-.448 6.12-.107-.06-2.145-.867-4.101-2.175-5.616-1.544 1.301-3.242 2.379-5.045 3.222.394.822.76 1.655 1.1 2.501z"/><path d="m11.718 8.585c-.902-1.711-1.923-3.361-3.063-4.936-2.702 1.083-4.75 3.435-5.417 6.322 2.913.124 5.796-.361 8.48-1.386z"/><path d="m13.404 12.225c-.313-.771-.652-1.53-1.014-2.281-2.598 1.012-5.373 1.564-8.195 1.564-.388 0-.778-.024-1.168-.045-.01.178-.027.356-.027.537 0 2.21.8 4.232 2.121 5.798 2.161-2.684 5.067-4.607 8.283-5.573z"/><path d="m15.417 13.271c.715 1.996 1.276 4.047 1.688 6.137 2.028-1.399 3.444-3.609 3.799-6.162-1.839-.325-3.698-.311-5.487.025z"/>
    <path d="m6.185 18.864c1.57 1.331 3.596 2.136 5.815 2.136 1.332 0 2.593-.297 3.73-.817-.412-2.241-1.012-4.434-1.787-6.563-3.024.883-5.755 2.698-7.758 5.244z"/>
  </symbol>
  <symbol xmlns="http://www.w3.org/2000/svg" id="twitter" viewBox="0 0 24 24">
    <path d="m21.534 7.113c.976-.693 1.797-1.558 2.466-2.554v-.001c-.893.391-1.843.651-2.835.777 1.02-.609 1.799-1.566 2.165-2.719-.951.567-2.001.967-3.12 1.191-.903-.962-2.19-1.557-3.594-1.557-2.724 0-4.917 2.211-4.917 4.921 0 .39.033.765.114 1.122-4.09-.2-7.71-2.16-10.142-5.147-.424.737-.674 1.58-.674 2.487 0 1.704.877 3.214 2.186 4.089-.791-.015-1.566-.245-2.223-.606v.054c0 2.391 1.705 4.377 3.942 4.835-.401.11-.837.162-1.29.162-.315 0-.633-.018-.931-.084.637 1.948 2.447 3.381 4.597 3.428-1.674 1.309-3.8 2.098-6.101 2.098-.403 0-.79-.018-1.177-.067 2.18 1.405 4.762 2.208 7.548 2.208 8.683 0 14.342-7.244 13.986-14.637z"/>
  </symbol>
</svg>
